<svg width="74" height="30" viewBox="0 0 74 30" fill="none" xmlns="http://www.w3.org/2000/svg">
<path d="M67.7426 28.5951C67.0206 27.8593 66.6595 26.9737 66.6595 25.9381C66.6595 24.9025 67.0206 24.0305 67.7426 23.3219C68.4646 22.5862 69.3203 22.2183 70.3097 22.2183C71.3259 22.2183 72.195 22.5862 72.917 23.3219C73.639 24.0305 74 24.9025 74 25.9381C74 26.9737 73.639 27.8593 72.917 28.5951C72.195 29.3037 71.3259 29.6579 70.3097 29.6579C69.3203 29.6579 68.4646 29.3037 67.7426 28.5951Z" fill="#6446A4"/>
<path d="M45.0349 29.3363L51.9786 19.4033L45.0349 9.55078H51.3041C51.5422 9.89931 52.1902 10.8779 53.2483 12.4864C54.3329 14.0682 54.9809 15.0468 55.1926 15.4221L59.0413 9.55078H65.0328L58.2081 19.2425L65.2708 29.3363H59.081L54.9942 23.2639C54.8619 23.4784 54.4783 24.0548 53.8435 24.9931C53.2351 25.9315 52.6531 26.8162 52.0976 27.6473C51.5686 28.4516 51.1983 29.0146 50.9867 29.3363H45.0349Z" fill="#3F3A41"/>
<path fill-rule="evenodd" clip-rule="evenodd" d="M39.8568 22.3992L44.2611 23.7263C43.7321 25.5494 42.6872 27.0507 41.1266 28.2303C39.5923 29.41 37.6745 29.9998 35.3732 29.9998C32.5693 29.9998 30.1886 29.048 28.2311 27.1445C26.2737 25.2142 25.2949 22.6405 25.2949 19.4234C25.2949 16.3671 26.2472 13.8738 28.1518 11.9435C30.0563 9.98637 32.3048 9.00781 34.8971 9.00781C37.9126 9.00781 40.2669 9.91934 41.9598 11.7424C43.6792 13.5655 44.5389 16.0722 44.5389 19.2625C44.5389 19.2625 44.5389 20.1064 44.4595 20.9113H30.4928C30.5457 22.1982 31.0483 23.2705 32.0006 24.1285C32.9528 24.9864 34.0903 25.4153 35.4129 25.4153C37.6613 25.4153 39.1426 24.41 39.8568 22.3992ZM38.1507 14.477C38.8913 15.2276 39.2881 16.1526 39.341 17.2518H30.6118C30.6647 16.2598 31.0879 15.3617 31.8815 14.5574C32.6751 13.7531 33.7067 13.351 34.9764 13.351C36.3784 13.351 37.4365 13.7263 38.1507 14.477Z" fill="#3F3A41"/>
<path d="M21.9421 29.3965H16.6649V0.28125H21.9421V29.3965Z" fill="#3F3A41"/>
<path d="M11.3083 4.70509C10.5677 4.70509 9.91957 4.91957 9.36408 5.34852C8.83503 5.75067 8.57051 6.44772 8.57051 7.43968V9.61126H12.9748V14.1957H8.57051V29.3968H3.25362V14.1957H0V9.61126H3.25362V7.35925C3.25362 5.13405 3.88847 3.3512 5.15818 2.01072C6.45433 0.67024 8.18695 0 10.356 0C11.5199 0 12.3929 0.134048 12.9748 0.402144V4.90616C12.5251 4.77211 11.9696 4.70509 11.3083 4.70509Z" fill="#3F3A41"/>
</svg>
